<?xml version="1.0" standalone="no"?>
<!DOCTYPE svg PUBLIC "-//W3C//DTD SVG 20010904//EN"
 "http://www.w3.org/TR/2001/REC-SVG-20010904/DTD/svg10.dtd">
<svg version="1.0" xmlns="http://www.w3.org/2000/svg"
 width="200.000000pt" height="200.000000pt" viewBox="0 0 200.000000 200.000000"
 preserveAspectRatio="xMidYMid meet">
<metadata>
Created by potrace 1.11, written by Peter Selinger 2001-2013
</metadata>
<g transform="translate(0.000000,200.000000) scale(0.100000,-0.100000)"
fill="#000000" stroke="none">
<path d="M567 1415 l-347 -350 31 -32 32 -31 -32 -34 -31 -33 350 -350 350
-350 349 349 350 350 -30 34 -30 34 31 31 30 31 -37 39 c-61 62 -664 662 -666
662 -1 0 -158 -158 -350 -350z m1033 -351 c0 -6 -11 -21 -25 -34 l-25 -23
-311 311 c-172 172 -315 312 -319 312 -3 0 -147 -140 -318 -311 -271 -272
-313 -310 -327 -299 -49 40 -57 30 305 391 l340 341 340 -339 c187 -187 340
-344 340 -349z m-365 246 l310 -310 -313 -312 -312 -312 -312 311 -312 312
310 311 c170 170 311 310 314 310 3 0 145 -140 315 -310z m-632 -630 c170
-171 313 -310 317 -310 4 0 148 140 319 312 l312 312 25 -27 c13 -14 24 -29
24 -33 0 -3 -153 -159 -340 -346 l-340 -340 -341 341 c-227 227 -338 345 -333
353 10 19 36 48 42 48 3 0 145 -139 315 -310z"/>
<path d="M708 1043 c-1 -32 -2 -70 0 -85 l3 -28 84 0 c105 0 117 9 113 88 -4
70 -21 82 -125 82 l-71 0 -4 -57z m163 26 c16 -8 20 -19 18 -52 -4 -67 -4 -67
-85 -67 l-74 0 0 65 0 65 61 0 c33 0 69 -5 80 -11z"/>
<path d="M956 1087 c-14 -10 -18 -27 -18 -71 0 -78 11 -88 102 -89 60 0 75 3
86 18 8 10 14 26 14 34 -1 12 -6 10 -20 -7 -15 -18 -31 -24 -68 -26 -27 -2
-59 1 -71 6 -20 7 -22 14 -19 65 l3 58 67 3 c59 3 69 0 80 -18 7 -11 16 -20
20 -20 14 0 9 28 -8 44 -20 20 -142 22 -168 3z"/>
</g>
</svg>
